<?xml version="1.0" encoding="UTF-8" standalone="no"?>
<!DOCTYPE svg PUBLIC "-//W3C//DTD SVG 1.1//EN" "http://www.w3.org/Graphics/SVG/1.1/DTD/svg11.dtd">
<svg width="100%" height="100%" viewBox="0 0 21 18" version="1.1" xmlns="http://www.w3.org/2000/svg" xmlns:xlink="http://www.w3.org/1999/xlink" xml:space="preserve" xmlns:serif="http://www.serif.com/" style="fill-rule:evenodd;clip-rule:evenodd;stroke-linejoin:round;stroke-miterlimit:2;">
    <g transform="matrix(0.0416223,0,0,0.0416223,5.59931,0.1)">
        <path d="M0,0C0.33,0.99 0.66,1.98 1,3C1.99,2.67 2.98,2.34 4,2C6.066,2.086 8.129,2.238 10.188,2.438C11.274,2.539 12.361,2.641 13.48,2.746C14.312,2.83 15.143,2.914 16,3C16.33,2.34 16.66,1.68 17,1C19,1 19,1 20.682,1.492C23.847,2.186 26.852,2.127 30.092,2.129C31.151,2.132 31.151,2.132 32.232,2.135C34.561,2.139 36.89,2.136 39.219,2.133C40.84,2.133 42.462,2.134 44.083,2.136C47.479,2.137 50.875,2.135 54.271,2.13C58.622,2.125 62.973,2.128 67.325,2.134C70.672,2.138 74.02,2.136 77.367,2.134C78.971,2.133 80.576,2.134 82.18,2.136C84.423,2.139 86.665,2.135 88.908,2.129C90.822,2.128 90.822,2.128 92.775,2.127C95.397,2.024 97.516,1.785 100,1L100,3C100.753,2.928 101.506,2.856 102.281,2.781C108.757,2.215 115.189,1.893 121.688,1.875C122.382,1.87 123.077,1.866 123.793,1.861C128.752,1.876 128.752,1.876 131,3C131.33,2.34 131.66,1.68 132,1L132,3C132.639,2.838 133.278,2.675 133.936,2.508C137.985,1.837 141.923,1.858 146.02,1.867C146.926,1.866 147.833,1.864 148.767,1.863C151.782,1.861 154.797,1.867 157.813,1.875C159.371,1.877 159.371,1.877 160.96,1.88C177.77,1.909 194.579,2.061 211.388,2.319C213.815,2.356 216.243,2.39 218.671,2.421C241.462,2.724 261.938,4.544 283,14C284.374,14.586 285.749,15.17 287.125,15.75C291.004,17.437 293.704,19.334 297,22C298.088,22.841 299.178,23.68 300.27,24.516C327.818,45.706 342.618,72.906 347.374,107.219C348.635,117.647 348.387,128.151 348.328,138.637C348.325,141.056 348.323,143.475 348.322,145.895C348.318,150.93 348.304,155.964 348.281,160.999C348.253,167.407 348.242,173.814 348.238,180.222C348.232,186.402 348.218,192.582 348.203,198.762C348.201,199.915 348.199,201.069 348.197,202.257C348.151,224.503 347.933,245.896 340.867,267.23C339.942,269.953 339.942,269.953 339.57,272.676C338.896,275.424 338.015,276.075 336,278C334.795,280.083 333.634,282.191 332.5,284.313C319.163,308.321 298.762,325.56 273.875,336.75C273.23,337.044 272.585,337.338 271.921,337.641C268.406,339.178 265.008,340.295 261.25,341.095C260.451,341.267 259.652,341.439 258.828,341.616C258.225,341.743 257.622,341.869 257,342C256.977,349.771 256.959,357.542 256.948,365.314C256.943,368.922 256.936,372.53 256.925,376.139C256.914,379.621 256.908,383.103 256.905,386.584C256.902,388.56 256.895,390.536 256.887,392.512C256.887,393.713 256.887,394.914 256.886,396.152C256.884,397.211 256.882,398.27 256.88,399.361C256.885,402.109 256.885,402.109 258,405C254.665,404.397 252.765,403.258 250.18,401.094C249.48,400.515 248.78,399.936 248.059,399.34C247.338,398.733 246.617,398.126 245.875,397.5C244.436,396.301 242.996,395.103 241.555,393.906C240.92,393.373 240.286,392.84 239.632,392.291C238.018,390.924 238.018,390.924 236,390L236,388C235.113,387.773 234.226,387.546 233.313,387.313C229.56,385.826 227.783,383.858 225,381L222,381L222,378C219.937,376.163 217.898,374.518 215.688,372.875C214.394,371.888 213.101,370.899 211.809,369.91C210.84,369.174 210.84,369.174 209.851,368.422C207.272,366.44 204.759,364.382 202.25,362.313C197.869,358.704 193.446,355.153 188.996,351.629C187,350 187,350 185,348C184.34,348.33 183.68,348.66 183,349C182.34,347.68 181.68,346.36 181,345L139,345C136.908,340.817 136.716,338.773 136.621,334.188C136.604,333.537 136.587,332.886 136.57,332.216C136.517,330.144 136.476,328.072 136.438,326C136.393,323.928 136.347,321.856 136.295,319.784C136.248,317.905 136.211,316.025 136.174,314.145C136.115,311.176 136.115,311.176 135.494,309.071C134.969,306.871 134.89,304.984 134.915,302.726C134.922,301.891 134.929,301.056 134.937,300.196C134.958,298.854 134.958,298.854 134.98,297.484C134.995,296.555 135.009,295.625 135.023,294.667C135.056,292.7 135.093,290.733 135.132,288.766C135.187,285.775 135.216,282.784 135.244,279.793C135.28,277.878 135.317,275.962 135.355,274.047C135.36,273.16 135.364,272.273 135.369,271.36C135.583,263.462 137.966,257.472 143.68,251.895C144.362,251.221 145.044,250.547 145.746,249.854C146.449,249.18 147.151,248.506 147.875,247.813C148.57,247.127 149.265,246.442 149.98,245.736C160.954,235 160.954,235 164,235L164,233C165.905,231.425 167.82,229.957 169.813,228.5C172.215,226.676 174.607,224.837 177,223C178.047,222.199 179.093,221.399 180.172,220.574C187.577,214.46 190.167,209.33 192,200C192.176,199.158 192.352,198.316 192.534,197.448C193.495,192.85 194.415,188.245 195.266,183.625C195.408,182.854 195.55,182.083 195.696,181.289C196.022,178.835 196.051,176.473 196,174L198,174C198.385,170.003 198.712,166.005 199,162C199.068,161.083 199.137,160.167 199.207,159.223C199.485,152.541 197.948,148.313 193.516,143.332C184.884,134.987 171.322,127.774 160,124L156,126L156,122C137.137,112.501 137.137,112.501 116.688,110.25C114.862,110.881 114.862,110.881 113.875,112.688C113.586,113.451 113.298,114.214 113,115C112.608,115.908 112.216,116.815 111.813,117.75C110.482,123.071 111.117,127.118 113.438,132.063C120.568,140.236 133.969,148.565 144.875,149.938C145.906,149.958 146.938,149.979 148,150C147.67,150.66 147.34,151.32 147,152C149.265,153.2 151.536,154.385 153.813,155.563C154.455,155.905 155.098,156.247 155.76,156.6C157.469,157.477 159.233,158.245 161,159C161.99,158.67 162.98,158.34 164,158C164.364,162.483 164.364,162.483 162.813,164.688C161,166 161,166 158.641,166.707C155.084,168.448 153.97,170.637 151.938,174C147.82,180.783 147.82,180.783 144,182C141.949,182.238 141.949,182.238 139.688,182.313C124.599,183.603 109.305,190.969 99,202C94.278,208.142 91.625,214.135 92,222C89.377,223.312 87.77,222.896 84.875,222.563C83.965,222.461 83.055,222.359 82.117,222.254C81.419,222.17 80.72,222.086 80,222C79.67,219.36 79.34,216.72 79,214C78.01,214.33 77.02,214.66 76,215C75.67,214.34 75.34,213.68 75,213L77,213C76.01,211.68 75.02,210.36 74,209C53.649,215.949 33.298,222.898 13,230C13.588,234.542 14.462,238.872 15.563,243.313C16.906,250.113 17.242,256.599 17.211,263.523C17.208,264.644 17.205,265.764 17.202,266.918C17.083,280.719 16.153,294.471 15.204,308.235C15.012,311.051 14.829,313.868 14.647,316.685C14.426,320.078 14.199,323.471 13.973,326.863C13.89,328.112 13.808,329.361 13.723,330.648C13.643,331.805 13.563,332.962 13.481,334.154C13.377,335.671 13.377,335.671 13.272,337.22C13.013,339.869 12.572,342.402 12,345C-20.874,345.661 -56.399,343.76 -83,322C-84.226,321.066 -84.226,321.066 -85.477,320.113C-101.043,307.978 -113.017,293.052 -121,275L-121,273L-124,273C-123.67,272.01 -123.34,271.02 -123,270C-123.692,267.564 -124.447,265.247 -125.313,262.875C-127.272,257.288 -128.876,251.825 -130,246L-132,246C-132.023,228.024 -132.041,210.049 -132.052,192.073C-132.057,183.727 -132.064,175.381 -132.075,167.035C-132.085,159.764 -132.092,152.492 -132.094,145.221C-132.095,141.368 -132.098,137.515 -132.106,133.663C-132.112,130.041 -132.115,126.419 -132.113,122.797C-132.114,120.825 -132.119,118.854 -132.124,116.882C-132.123,115.72 -132.122,114.557 -132.12,113.359C-132.121,112.343 -132.122,111.326 -132.123,110.278C-132,108 -132,108 -131,107C-130.722,105.195 -130.449,103.388 -130.202,101.578C-128.029,86.099 -123.58,70.204 -115,57C-114.502,56.214 -114.005,55.427 -113.492,54.617C-97.155,30.071 -72.669,11.341 -43.438,5.188C-40.963,4.765 -38.483,4.369 -36,4C-34.726,3.796 -33.453,3.593 -32.141,3.383C-23.94,2.2 -16.036,1.816 -7.762,2.073C-5.842,2.119 -3.92,2.067 -2,2C-1.34,1.34 -0.68,0.68 0,0ZM115.5,64.316C111.711,69.072 110.732,75.087 109.313,80.875C109.018,82.021 108.723,83.167 108.42,84.348C107.852,86.567 107.293,88.79 106.745,91.015C106.29,92.836 105.818,94.653 105.314,96.462C104.313,100.079 103.905,102.417 105,106C105.784,105.072 106.568,104.144 107.375,103.188C111.248,99.259 115.716,98.134 121,97C123.038,97 125.075,97.597 127.063,98C128.441,98.278 128.441,98.278 129.848,98.563C130.558,98.707 131.268,98.851 132,99C132.315,98.166 132.629,97.332 132.953,96.473C136.869,86.175 136.869,86.175 139.188,81.25C141.153,76.961 142.168,72.631 143,68C142.67,68.66 142.34,69.32 142,70L140,70L140,67L142,67C140.592,63.597 139.095,61.978 136,60C128.228,57.911 121.427,58.825 115.5,64.316ZM75,68C69.513,76.404 68.788,88.302 67,98C66.459,100.796 65.872,103.569 65.246,106.348C61.943,120.839 61.943,120.839 65,135C66.619,136.889 67.774,137.887 70,139C72.01,139.167 72.01,139.167 74.25,139C74.998,138.979 75.745,138.959 76.516,138.938C80.545,137.417 82.71,134.574 85,131C86.339,127.887 87.152,124.729 87.938,121.438C88.175,120.506 88.412,119.574 88.657,118.614C89.462,115.415 90.232,112.208 91,109C91.47,107.078 91.941,105.157 92.411,103.235C93.223,99.91 94.018,96.58 94.813,93.25C95.115,91.99 95.417,90.73 95.728,89.431C99.236,77.475 99.236,77.475 97.313,65.875C90.142,61.816 81.171,62.601 75,68ZM155.125,74.918C152.065,79.357 150.195,84.139 148.188,89.125C147.768,90.127 147.348,91.128 146.916,92.16C146.525,93.121 146.134,94.081 145.73,95.07C145.374,95.944 145.017,96.819 144.649,97.719C143.731,100.132 143.731,100.132 145,103C152.535,102.461 159.216,100.118 166.313,97.625C167.491,97.225 168.67,96.826 169.885,96.414C171.012,96.022 172.139,95.63 173.301,95.227C174.323,94.872 175.346,94.517 176.4,94.151C178.934,93.029 180.329,92.187 182,90C182.825,84.78 182.839,79.714 180.5,74.938C172.742,68.925 162.508,67.365 155.125,74.918ZM38.25,79.063C33.068,85.828 31.226,93.339 29.875,101.625C29.71,102.588 29.546,103.551 29.376,104.542C28.901,107.359 28.447,110.179 28,113C27.879,113.753 27.757,114.506 27.632,115.281C24.547,131.182 24.547,131.182 29,146C32.206,147.603 35.515,147.342 39,147C41.98,145.984 43.411,145.016 44.998,142.278C47.987,135.781 49.438,129.257 50.75,122.25C50.97,121.14 51.191,120.03 51.418,118.887C52.329,114.185 53.133,109.803 53,105L54,105C54.677,101.961 55.34,98.918 56,95.875C56.286,94.591 56.286,94.591 56.578,93.281C58.505,85.382 58.505,85.382 56.875,77.688C51.46,72.814 43.504,75.122 38.25,79.063ZM220,88C218.525,88.537 217.05,89.072 215.574,89.605C210.705,91.375 205.853,93.187 201,95C197.545,96.288 194.089,97.576 190.633,98.86C188.318,99.721 186.003,100.583 183.69,101.448C177.261,103.839 170.816,106.071 164.263,108.099C161.835,108.775 161.835,108.775 161,111C161.75,111.347 162.5,111.693 163.272,112.051C191.538,125.19 191.538,125.19 201,133C201.718,133.59 202.436,134.181 203.176,134.789C207.685,138.879 209.864,143.365 212,149C212.526,148.823 213.053,148.647 213.595,148.465C219.593,146.458 225.603,144.493 231.625,142.563C233.067,142.096 233.067,142.096 234.538,141.621C240.078,139.852 245.582,138.355 251.25,137.063C258.342,135.225 262.746,131.989 268,127C269.685,125.477 271.373,123.956 273.063,122.438C273.876,121.695 274.689,120.953 275.527,120.188C279.206,116.933 283.075,113.949 287,111C286.387,107.667 285.563,104.528 284.5,101.313C282.935,96.235 282.326,91.29 282,86C273.918,83.464 265.248,82.834 257,85L253,85C252.505,84.01 252.505,84.01 252,83C250.243,81.243 247.961,81.661 245.563,81.563C236.402,81.642 228.489,84.818 220,88ZM294,87C294.325,96.244 294.325,96.244 297,101C302.085,100.524 305.321,97.993 309.313,95.063C309.958,94.607 310.603,94.151 311.268,93.682C312.887,92.511 314.449,91.261 316,90L316,88C308.74,87.67 301.48,87.34 294,87ZM4,109C-2.692,117.139 -3.924,127.921 -5.688,138C-5.912,139.219 -6.137,140.439 -6.369,141.695C-7.531,148.236 -8.265,154.359 -8,161C0.646,159.388 9.627,156.916 17,152C16.691,151.464 16.381,150.928 16.063,150.375C13.348,144.306 13.911,137.692 14,131.188C14.025,129.285 14.046,127.383 14.063,125.48C14.074,124.644 14.086,123.808 14.098,122.946C14.218,120.994 14.218,120.994 13,120L15,120C15.334,117.354 15.667,114.708 16,112.063C16.095,111.308 16.191,110.553 16.289,109.775C16.786,106.398 16.786,106.398 17,103C11.088,102.568 8.217,105.147 4,109ZM99,134C98.599,134.58 98.198,135.16 97.785,135.758C93.059,142.252 87.306,148.605 79,150C72.858,150.354 67.066,150.508 61.188,148.563C59.089,147.903 59.089,147.903 57,148C54.682,149.47 52.969,151.085 51.117,153.105C46.855,156.919 41.843,158.169 36.304,159.076C25.69,160.835 15.805,164.356 5.75,168.063C5.024,168.33 4.297,168.597 3.549,168.873C-7.991,172.176 -7.991,172.176 -18,178C-17.793,191.029 -12.136,204.171 -7,216C-6.258,217.763 -6.258,217.763 -5.5,219.563C-4.272,222.071 -4.272,222.071 -2.289,222.766C0.874,223.089 3.133,222.228 6.125,221.188C7.707,220.652 7.707,220.652 9.32,220.105C12.094,219.162 12.094,219.162 14,217C15.999,216.661 17.999,216.329 20,216C22.981,215.101 25.898,214.035 28.824,212.973C29.675,212.668 30.527,212.364 31.404,212.05C34.167,211.059 36.927,210.062 39.688,209.063C41.591,208.376 43.495,207.69 45.399,207.004C49.183,205.639 52.966,204.27 56.749,202.899C60.639,201.489 64.535,200.094 68.435,198.71C71.418,197.649 74.396,196.574 77.375,195.5C78.398,195.14 79.421,194.781 80.475,194.41C89.247,191.21 97.107,186.685 104.813,181.438C114.118,175.617 124.713,172.414 135.453,170.556C139.106,169.841 140.694,169.404 142.984,166.379C143.32,165.594 143.655,164.809 144,164C142.293,163.389 142.293,163.389 140.551,162.766C135.16,160.747 130.055,158.19 124.916,155.609C124.195,155.259 123.474,154.908 122.73,154.547C122.085,154.226 121.439,153.904 120.774,153.573C118.793,152.74 118.793,152.74 116,154C116.33,153.01 116.66,152.02 117,151C116.504,150.66 116.007,150.319 115.496,149.969C110.882,146.677 107.163,143.192 103.543,138.832C102.105,137.124 100.602,135.554 99,134ZM-49.91,188.609C-53.816,192.948 -55.893,197.164 -56.117,203.113C-55.362,213.088 -52.867,222.867 -45,229.75C-38.027,234.108 -30.989,233.879 -22.961,232.465C-19.353,231.547 -19.353,231.547 -16,230C-14.953,228.206 -14.953,228.206 -15,226C-15.795,223.572 -15.795,223.572 -17.125,221.063C-19.734,215.662 -21.895,210.174 -23.984,204.555C-24.763,202.105 -24.763,202.105 -26,201C-26.3,199.694 -26.565,198.38 -26.813,197.063C-27.926,191.775 -29.871,186.951 -32,182C-38.023,182 -45.356,184.772 -49.91,188.609ZM77,207C77.33,208.65 77.66,210.3 78,212C80.102,209.132 80.102,209.132 81,206C78.925,205.851 78.925,205.851 77,207ZM-131,236L-131,243L-130,243L-130,236L-131,236Z"
        fill="currentColor"
        stroke="currentColor"
        stroke-width="4.81"
        fill-rule="nonzero"/>
    </g>
</svg>
